# xmcd
#
# Track frame offsets: 
#        150
#        21742
#        40020
#        60445
#        73102
#        99720
#        111517
#        131345
#        150440
#        170397
#        191312
#
# Disc length: 2698 seconds
#
# Revision: 5
# Processed by: cddbd v1.5.2PL0 Copyright (c) Steve Scherf et al.
# Submitted via: ExactAudioCopy v1.0b1
#
DISCID=900a880b
DTITLE=American Folk Blues Festival - American Folk Blues Festival '66
DYEAR=1990
DGENRE=Blues
TTITLE0=Roosevelt Sykes - Mike Myers - Freddie Below - Running The Boogi
TTITLE0=e
TTITLE1=Otis Rush - Little Brother Montgomery - Mike Myers - Freddie Belo
TTITLE1=w - All Your Love
TTITLE2=Little Brother Montgomery - Freddie Below - I Keep On Drinking
TTITLE3=Sleepy John Estes - Rachell, Yank - You Shouldn't Do It
TTITLE4=Otis Rush - Little Brother Montgomery - Mike Myers - Freddie Belo
TTITLE4=w - My Own Fault
TTITLE5=Junior Wells - Otis Rush - Mike Myers - Freddie Below - Checkin' 
TTITLE5=On My Baby
TTITLE6=Junior Wells - Otis Rush - Mike Myers - Freddie Below - A Tribute
TTITLE6=To Sonny Boy Wiiliamson
TTITLE7=Sippie Wallace - Little Brother Montgomery - Mike Myers - Freddie
TTITLE7=Below - Suitcase Blues
TTITLE8=Robert Pete Williams - Louise
TTITLE9=Big Joe Turner - Little Brother Montgomery - Otis Rush - Mike Mye
TTITLE9=rs - Freddie Below - Flip, Flop And Fly
TTITLE10=Big Joe Turner - Roosevelt Sykes - Otis Rush - Mike Myers - Fredd
TTITLE10=ie Below - Roll'em Pete
EXTD=
EXTT0=
EXTT1=
EXTT2=
EXTT3=
EXTT4=
EXTT5=
EXTT6=
EXTT7=
EXTT8=
EXTT9=
EXTT10=
PLAYORDER=
